<svg width="110" height="110" viewBox="0 0 110 110" fill="none" xmlns="http://www.w3.org/2000/svg">
<circle cx="54.5455" cy="54.5455" r="54.5455" transform="matrix(-1 0 0 1 109.545 0)" fill="#FEA803"/>
<path d="M77.5199 68.5133C77.4126 67.8497 76.9967 67.2825 76.3737 66.9455L67.1583 61.5144L67.0825 61.472C66.6961 61.2785 66.2694 61.1793 65.8373 61.1826C65.0652 61.1826 64.3278 61.4752 63.8161 61.9883L61.0962 64.7103C60.9798 64.8209 60.6005 64.981 60.4855 64.9868C60.454 64.9843 57.3207 64.7586 51.5523 58.9879C45.7942 53.2295 45.5499 50.0856 45.548 50.0856C45.5512 49.9249 45.7093 49.5468 45.8218 49.4297L48.1413 47.1103C48.9583 46.291 49.2033 44.9329 48.7186 43.8809L43.5963 34.2398C43.224 33.4733 42.5008 33 41.6985 33C41.1309 33 40.5832 33.2354 40.155 33.663L33.8325 39.9731C33.2263 40.5763 32.7043 41.6309 32.5905 42.4797C32.5352 42.8855 31.4134 52.571 44.6885 65.8517C55.9584 77.1236 64.7463 77.9994 67.1731 77.9994C67.4687 78.0032 67.7641 77.988 68.0577 77.9538C68.9037 77.8406 69.9567 77.3197 70.5591 76.7159L76.8764 70.3974C77.392 69.8791 77.6273 69.1943 77.5199 68.5133Z" fill="white"/>
</svg>
