<?xml version="1.0" encoding="utf-8"?>
<svg width="110" height="110" viewBox="0 0 110 110" fill="none" xmlns="http://www.w3.org/2000/svg">
<circle cx="54.5455" cy="54.5455" r="54.5455" transform="matrix(-1 0 0 1 109.545 0)" fill="#FEA803"/>
<path d="M78.377 47.008L56.5847 59.3213C56.3661 59.4448 56.1233 59.5093 55.877 59.5093C55.6306 59.5093 55.3878 59.4448 55.1692 59.3213L33.377 47.0102V68.3991C33.3768 70.2439 34.0265 72.0187 35.1926 73.3596C36.3588 74.7005 37.953 75.5058 39.6483 75.6102L40.0247 75.6213H71.7292C73.4272 75.6215 75.0609 74.9157 76.2952 73.6487C77.5294 72.3818 78.2706 70.6498 78.3667 68.808L78.377 68.3991V47.008ZM71.7292 35.6213H40.0247C38.3267 35.6212 36.693 36.327 35.4588 37.5939C34.2245 38.8609 33.4833 40.5929 33.3872 42.4347L33.377 42.8436V43.2524L55.877 55.9636L78.377 43.2524V42.8436C78.3771 40.9988 77.7274 39.2239 76.5613 37.883C75.3951 36.5422 73.8009 35.7369 72.1056 35.6324L71.7292 35.6213H40.0247H71.7292Z" fill="white"/>
</svg>
