<?xml version="1.0" encoding="utf-8"?>
<svg width="110" height="109" viewBox="0 0 110 109" fill="none" xmlns="http://www.w3.org/2000/svg">
<circle cx="54.4681" cy="54.4681" r="54.4681" transform="matrix(-1 0 0 1 109.191 0)" fill="#FEA803"/>
<path d="M53.5 31C59.4674 31 65.1903 33.0319 69.4099 36.6487C73.6295 40.2655 76 45.1709 76 50.2859C76 59.5013 68.7437 67.9839 54.505 75.7496C54.2045 75.9132 53.8559 76 53.5 76C53.1441 76 52.7955 75.9132 52.495 75.7496C38.2562 67.9839 31 59.5013 31 50.2859C31 45.1709 33.3705 40.2655 37.5901 36.6487C41.8097 33.0319 47.5326 31 53.5 31V31ZM53.5 43.8572C51.5109 43.8572 49.6032 44.5345 48.1967 45.7401C46.7902 46.9457 46 48.5809 46 50.2859C46 51.9908 46.7902 53.626 48.1967 54.8316C49.6032 56.0372 51.5109 56.7145 53.5 56.7145C55.4891 56.7145 57.3968 56.0372 58.8033 54.8316C60.2098 53.626 61 51.9908 61 50.2859C61 48.5809 60.2098 46.9457 58.8033 45.7401C57.3968 44.5345 55.4891 43.8572 53.5 43.8572V43.8572Z" fill="white"/>
</svg>
