<svg width="104" height="104" viewBox="0 0 104 104" fill="none" xmlns="http://www.w3.org/2000/svg">
<path d="M47.3871 73.8063C60.1253 73.8063 70.4517 63.4799 70.4517 50.7418C70.4517 38.0036 60.1253 27.6772 47.3871 27.6772C34.649 27.6772 24.3226 38.0036 24.3226 50.7418C24.3226 63.4799 34.649 73.8063 47.3871 73.8063Z" fill="#FEA803"/>
<path d="M52 95.613C27.9492 95.613 8.38708 76.0467 8.38708 52.0001C8.38708 27.9535 27.9492 8.38721 52 8.38721C76.0508 8.38721 95.6129 27.9493 95.6129 52.0001C95.6129 76.0509 76.0508 95.613 52 95.613ZM52 10.0574C28.872 10.0574 10.0573 28.8721 10.0573 52.0001C10.0573 75.1281 28.872 93.9428 52 93.9428C75.128 93.9428 93.9427 75.1281 93.9427 52.0001C93.9427 28.8721 75.1238 10.0574 52 10.0574Z" fill="#173951"/>
<path fill-rule="evenodd" clip-rule="evenodd" d="M53.2605 34.3608C45.053 34.3608 38.3996 41.0143 38.3996 49.2217C38.3996 51.6137 38.9647 53.8738 39.9688 55.8756L30.3513 73.188L30.3333 73.2212C29.7543 74.3187 30.5528 75.6471 31.8027 75.6411L40.7671 75.5977L45.2376 83.0918L45.2583 83.1258C45.9538 84.2342 47.6129 84.1302 48.1588 82.9292L53.2605 71.7058L58.3621 82.9292L58.379 82.9653C58.9471 84.1441 60.6075 84.2248 61.2834 83.0918L65.7538 75.5977L74.7182 75.6411L74.7559 75.6408C75.9956 75.6201 76.7757 74.2826 76.1707 73.19L66.5667 55.8464C67.5617 53.8519 68.1213 51.6021 68.1213 49.2217C68.1213 41.0143 61.4679 34.3608 53.2605 34.3608ZM51.7596 67.0268C51.7625 67.0206 51.7654 67.0143 51.7684 67.008L53.0985 64.0818C48.6809 64.0346 44.7256 62.0599 42.0337 58.9589L34.6084 72.325L40.7504 72.2953C41.9026 72.2895 42.9733 72.8846 43.5774 73.8634L43.603 73.9056L46.4577 78.6911L51.7471 67.0549C51.7511 67.0455 51.7553 67.0361 51.7596 67.0268ZM60.0631 78.6911L55.0744 67.7155L56.9337 63.6252C59.9217 62.8655 62.5484 61.2004 64.5044 58.9391L71.9168 72.325L65.7702 72.2953L65.7208 72.2955C64.5714 72.3068 63.5086 72.9158 62.9181 73.9053L60.0631 78.6911ZM63.1159 55.2638C63.1823 55.0803 63.2813 54.908 63.4101 54.7566C64.3083 53.1128 64.8189 51.2269 64.8189 49.2217C64.8189 42.8382 59.644 37.6633 53.2605 37.6633C46.8769 37.6633 41.702 42.8382 41.702 49.2217C41.702 55.6053 46.8769 60.7802 53.2605 60.7802C53.9951 60.7802 54.7137 60.7117 55.4102 60.5806C55.4434 60.5732 55.4769 60.5667 55.5106 60.5613C58.7235 59.9274 61.4582 57.962 63.1159 55.2638ZM53.2605 40.9657C48.7008 40.9657 45.0044 44.662 45.0044 49.2217C45.0044 53.7814 48.7008 57.4778 53.2605 57.4778C57.8201 57.4778 61.5165 53.7814 61.5165 49.2217C61.5165 44.662 57.8201 40.9657 53.2605 40.9657ZM53.2605 44.2681C55.9963 44.2681 58.2141 46.4859 58.2141 49.2217C58.2141 51.9575 55.9963 54.1754 53.2605 54.1754C50.5246 54.1754 48.3068 51.9575 48.3068 49.2217C48.3068 46.4859 50.5246 44.2681 53.2605 44.2681Z" fill="#132E42"/>
</svg>
