<?xml version="1.0" encoding="utf-8"?>
<svg width="72" height="65" viewBox="0 0 72 65" fill="none" xmlns="http://www.w3.org/2000/svg">
<g clip-path="url(#clip0_156_5986)">
<path d="M63.5412 48.2986H8.45864C5.5048 48.2986 3.12158 45.9079 3.12158 42.9823V6.31944C3.12158 2.84208 5.95795 0 9.46564 0H62.5342C66.0419 0 68.8782 2.84208 68.8782 6.31944V42.9823C68.8782 45.9246 66.4782 48.2986 63.5412 48.2986ZM9.46564 2.62474C7.41809 2.62474 5.75655 4.27984 5.75655 6.31944V42.9823C5.75655 44.4702 6.96494 45.6739 8.45864 45.6739H63.5412C65.0349 45.6739 66.2433 44.4702 66.2433 42.9823V6.31944C66.2433 4.27984 64.5817 2.62474 62.5342 2.62474H9.46564Z" fill="white"/>
<path d="M67.5693 42.4641H4.43085C3.70918 42.4641 3.10498 41.879 3.10498 41.1601C3.10498 40.4412 3.69239 39.8394 4.43085 39.8394H67.5693C68.291 39.8394 68.8784 40.4245 68.8784 41.1601C68.8784 41.8957 68.291 42.4641 67.5693 42.4641Z" fill="white"/>
<path d="M65.8909 64.9998H6.12588C4.16225 64.9998 2.36644 64.097 1.2084 62.5255C0.0503597 60.954 -0.285305 58.9812 0.285325 57.1088L2.34966 50.4383C2.56784 49.7529 3.3063 49.3516 3.99442 49.569C4.68253 49.7863 5.08532 50.5219 4.86714 51.2073L2.80281 57.8779C2.46714 58.9478 2.66854 60.0679 3.32309 60.954C3.97763 61.8568 5.00141 62.3583 6.12588 62.3583H65.8909C67.0154 62.3583 68.0224 61.84 68.6937 60.954C69.365 60.0679 69.5497 58.9311 69.214 57.8779L67.1497 51.2073C66.9315 50.5219 67.3175 49.7863 68.0224 49.569C68.7105 49.3516 69.4489 49.7361 69.6671 50.4383L71.7315 57.1088C72.3189 58.9812 71.9832 60.954 70.8084 62.5255C69.6503 64.097 67.8545 64.9998 65.8909 64.9998Z" fill="white"/>
<path d="M64.4307 59.3827H7.58595C6.86427 59.3827 6.27686 58.7975 6.27686 58.0619C6.27686 57.3263 6.86427 56.7412 7.58595 56.7412H64.4307C65.1524 56.7412 65.7398 57.3263 65.7398 58.0619C65.7398 58.7975 65.1524 59.3827 64.4307 59.3827Z" fill="white"/>
<path d="M13.2083 28.7218C10.674 28.7218 8.62646 26.6655 8.62646 24.1578C8.62646 21.6501 10.6908 19.5938 13.2083 19.5938C15.7258 19.5938 17.7901 21.6501 17.7901 24.1578C17.7901 26.6655 15.7258 28.7218 13.2083 28.7218ZM13.2083 22.2185C12.1342 22.2185 11.2614 23.0878 11.2614 24.1578C11.2614 25.2278 12.1342 26.0971 13.2083 26.0971C14.2824 26.0971 15.1551 25.2278 15.1551 24.1578C15.1551 23.0878 14.2824 22.2185 13.2083 22.2185Z" fill="white"/>
<path d="M28.3301 18.925C25.7958 18.925 23.7483 16.8686 23.7483 14.3609C23.7483 11.8532 25.8126 9.79688 28.3301 9.79688C30.8476 9.79688 32.9119 11.8532 32.9119 14.3609C32.9119 16.8686 30.8476 18.925 28.3301 18.925ZM28.3301 12.4216C27.256 12.4216 26.3833 13.291 26.3833 14.3609C26.3833 15.4309 27.256 16.3002 28.3301 16.3002C29.4042 16.3002 30.277 15.4309 30.277 14.3609C30.277 13.291 29.4042 12.4216 28.3301 12.4216Z" fill="white"/>
<path d="M45.9524 25.5451C43.4182 25.5451 41.3706 23.4888 41.3706 20.981C41.3706 18.4733 43.4349 16.417 45.9524 16.417C48.4699 16.417 50.5342 18.4733 50.5342 20.981C50.5342 23.4888 48.4699 25.5451 45.9524 25.5451ZM45.9524 19.0417C44.8783 19.0417 44.0056 19.9111 44.0056 20.981C44.0056 22.051 44.8783 22.9203 45.9524 22.9203C47.0265 22.9203 47.8993 22.051 47.8993 20.981C47.8993 19.9111 47.0265 19.0417 45.9524 19.0417Z" fill="white"/>
<path d="M57.9524 15.6647C55.4182 15.6647 53.3706 13.6084 53.3706 11.1007C53.3706 8.59295 55.4349 6.53662 57.9524 6.53662C60.4699 6.53662 62.5342 8.59295 62.5342 11.1007C62.5342 13.6084 60.4699 15.6647 57.9524 15.6647ZM57.9524 9.16136C56.8783 9.16136 56.0056 10.0307 56.0056 11.1007C56.0056 12.1706 56.8783 13.04 57.9524 13.04C59.0265 13.04 59.8993 12.1706 59.8993 11.1007C59.8993 10.0307 59.0265 9.16136 57.9524 9.16136Z" fill="white"/>
<path d="M15.6084 23.2715C15.1889 23.2715 14.7693 23.0709 14.5175 22.7031C14.1147 22.1013 14.2658 21.2821 14.87 20.8808L24.5035 14.3441C25.1077 13.9428 25.9301 14.0933 26.3329 14.6951C26.7357 15.297 26.5847 16.1162 25.9805 16.5174L16.3469 23.0542C16.1119 23.2046 15.8602 23.2882 15.6084 23.2882V23.2715Z" fill="white"/>
<path d="M43.6364 19.9947C43.4853 19.9947 43.3343 19.9613 43.1832 19.9111L31.1496 15.5811C30.4615 15.3304 30.1091 14.578 30.3608 13.8926C30.6126 13.2072 31.3678 12.8561 32.0559 13.1068L44.0895 17.4368C44.7776 17.6876 45.1301 18.4399 44.8783 19.1254C44.6769 19.6603 44.1734 19.9947 43.6364 19.9947Z" fill="white"/>
<path d="M48.8896 20.8641C48.5372 20.8641 48.1847 20.7304 47.9162 20.4462C47.4295 19.9112 47.4463 19.092 47.9833 18.5904L54.6966 12.3713C55.2337 11.8698 56.056 11.9032 56.5595 12.4382C57.063 12.9732 57.0295 13.7923 56.4924 14.2939L49.7791 20.513C49.5274 20.7471 49.2085 20.8641 48.8896 20.8641Z" fill="white"/>
<path d="M13.2084 42.4638C12.4868 42.4638 11.8826 41.8787 11.8826 41.1598V31.4466C11.8826 30.7277 12.47 30.1426 13.2084 30.1426C13.9469 30.1426 14.5175 30.7277 14.5175 31.4466V41.1598C14.5175 41.8787 13.9301 42.4638 13.2084 42.4638Z" fill="white"/>
<path d="M20.4251 42.4638C19.7034 42.4638 19.116 41.8787 19.116 41.1598V25.2275C19.116 24.5086 19.7034 23.9067 20.4251 23.9067C21.1467 23.9067 21.7509 24.4919 21.7509 25.2275V41.1598C21.7509 41.8787 21.1635 42.4638 20.4251 42.4638Z" fill="white"/>
<path d="M27.642 42.4642C26.9204 42.4642 26.3162 41.8791 26.3162 41.1602V21.9511C26.3162 21.2322 26.9036 20.6304 27.642 20.6304C28.3805 20.6304 28.9511 21.2155 28.9511 21.9511V41.1435C28.9511 41.8624 28.3637 42.4475 27.642 42.4475V42.4642Z" fill="white"/>
<path d="M34.8755 42.464C34.1538 42.464 33.5664 41.8789 33.5664 41.16V23.2382C33.5664 22.5193 34.1538 21.9175 34.8755 21.9175C35.5972 21.9175 36.2014 22.5026 36.2014 23.2382V41.16C36.2014 41.8789 35.614 42.464 34.8755 42.464Z" fill="white"/>
<path d="M42.0922 42.4642C41.3706 42.4642 40.7664 41.8791 40.7664 41.1602V27.4179C40.7664 26.699 41.3538 26.0972 42.0922 26.0972C42.8307 26.0972 43.4181 26.6823 43.4181 27.4179V41.1602C43.4181 41.8791 42.8307 42.4642 42.0922 42.4642Z" fill="white"/>
<path d="M49.309 42.464C48.5873 42.464 47.9832 41.8789 47.9832 41.16V29.0561C47.9832 28.3372 48.5706 27.7354 49.309 27.7354C50.0475 27.7354 50.6181 28.3205 50.6181 29.0561V41.16C50.6181 41.8789 50.0307 42.464 49.309 42.464Z" fill="white"/>
<path d="M56.5259 42.4642C55.8042 42.4642 55.2168 41.8791 55.2168 41.1602V21.9511C55.2168 21.2322 55.8042 20.6304 56.5259 20.6304C57.2476 20.6304 57.8518 21.2155 57.8518 21.9511V41.1435C57.8518 41.8624 57.2643 42.4475 56.5259 42.4475V42.4642Z" fill="white"/>
</g>
<defs>
<clipPath id="clip0_156_5986">
<rect width="72" height="65" fill="white"/>
</clipPath>
</defs>
</svg>
