<?xml version="1.0" encoding="utf-8"?>
<svg width="64" height="64" viewBox="0 0 64 64" fill="none" xmlns="http://www.w3.org/2000/svg">
<g clip-path="url(#clip0_156_5953)">
<path d="M38.2127 64.0002H25.7872C25.1481 64.0002 24.613 63.48 24.613 62.826V59.3035C24.613 58.6644 25.1332 58.1293 25.7724 58.1293C26.4115 58.1293 26.9317 58.6495 26.9317 59.3035V61.6518H37.0236V57.1186C37.0236 56.5836 37.3952 56.1079 37.9154 55.989C40.3232 55.3945 42.627 54.4433 44.7524 53.1502C45.2131 52.8678 45.8076 52.9421 46.1792 53.3286L49.3896 56.539L56.5239 49.4047L53.3135 46.1943C52.927 45.8079 52.8676 45.2282 53.1351 44.7675C54.4282 42.6421 55.3794 40.3383 55.9739 37.9305C56.1077 37.4103 56.5684 37.0387 57.1035 37.0387H61.6367V26.9468H59.6154C58.9763 26.9468 58.4561 26.4266 58.4561 25.7726C58.4561 25.1186 58.9763 24.6133 59.6154 24.6133H62.8109C63.45 24.6133 63.9702 25.1335 63.9702 25.7726V38.198C63.9702 38.8372 63.45 39.3722 62.8109 39.3722H58.0102C57.4454 41.3936 56.6279 43.3406 55.6024 45.1836L59.006 48.5873C59.4667 49.048 59.4667 49.7763 59.006 50.2371L50.222 59.0211C49.7612 59.4818 49.0329 59.4818 48.5722 59.0211L45.1685 55.6175C43.3255 56.643 41.3785 57.4456 39.3571 58.0253V62.826C39.3571 63.4651 38.8369 64.0002 38.1978 64.0002H38.2127Z" fill="white"/>
<path d="M4.6967 39.372H1.17418C0.535067 39.372 0 38.8518 0 38.1979V25.7724C0 25.1333 0.520204 24.6131 1.17418 24.6131H5.97492C6.53971 22.5917 7.35718 20.6447 8.38272 18.8017L4.9791 15.398C4.51835 14.9373 4.51835 14.209 4.9791 13.7483L13.7631 4.9791C14.2239 4.51835 14.9522 4.51835 15.4129 4.9791L18.8165 8.38272C20.6595 7.35718 22.6066 6.55457 24.628 5.97492V1.17418C24.628 0.535067 25.1482 0 25.8021 0H38.2276C38.8667 0 39.3869 0.520204 39.3869 1.17418V4.6967C39.3869 5.33581 38.8667 5.87088 38.2276 5.87088C37.5885 5.87088 37.0534 5.35067 37.0534 4.6967V2.33349H26.9614V6.8667C26.9614 7.40176 26.5899 7.87738 26.0697 7.99628C23.6619 8.5908 21.3581 9.54203 19.2327 10.8351C18.7719 11.1175 18.1774 11.0432 17.8059 10.6568L14.5954 7.44635L7.46122 14.5806L10.6716 17.791C11.0581 18.1774 11.1175 18.7571 10.85 19.2178C9.5569 21.3432 8.60567 23.647 8.01115 26.0548C7.87738 26.575 7.41663 26.9466 6.88156 26.9466H2.33349V37.0385H4.6967C5.33581 37.0385 5.85602 37.5588 5.85602 38.1979C5.85602 38.837 5.33581 39.372 4.6967 39.372Z" fill="white"/>
<path d="M14.7887 34.3931C14.1793 34.3931 13.674 33.9175 13.6294 33.3081C13.2578 27.9723 15.2049 22.7554 18.9801 18.9802C22.8742 15.0861 28.2694 13.139 33.7687 13.6741C34.4078 13.7336 34.8835 14.2984 34.824 14.9523C34.7645 15.5914 34.1849 16.0522 33.5458 16.0076C28.745 15.5468 24.0335 17.2412 20.6299 20.6448C17.3303 23.9444 15.6359 28.5074 15.9629 33.1595C16.0075 33.7986 15.517 34.3634 14.8779 34.408C14.8482 34.408 14.8184 34.408 14.7887 34.408V34.3931Z" fill="white"/>
<path d="M32.0148 50.415C31.4352 50.415 30.8555 50.3853 30.2759 50.3258C29.6368 50.2664 29.1611 49.7016 29.2206 49.0625C29.28 48.4233 29.8597 47.9477 30.484 48.0072C35.2698 48.4531 39.9665 46.7587 43.3702 43.3699C46.6697 40.0704 48.3641 35.5074 48.0371 30.8553C47.9925 30.2162 48.4682 29.6514 49.1221 29.6068C49.7612 29.5622 50.326 30.0527 50.3706 30.6918C50.7422 36.0276 48.7951 41.2445 45.0199 45.0197C41.542 48.4977 36.875 50.415 32.0148 50.415Z" fill="white"/>
<path d="M14.6103 61.8893C13.3172 61.8893 12.0093 61.6812 10.731 61.265C10.3446 61.1461 10.0473 60.8191 9.95816 60.4327C9.86898 60.0463 9.98789 59.6152 10.2703 59.3328L12.8267 56.7764C13.5699 56.0333 13.986 55.0374 13.986 53.9822C13.986 52.9269 13.5699 51.9311 12.8267 51.1879C12.0836 50.4448 11.0877 50.0286 10.0325 50.0286C8.9772 50.0286 7.98138 50.4448 7.23823 51.1879L4.6818 53.7444C4.39941 54.0268 3.98324 54.1457 3.58194 54.0565C3.18064 53.9673 2.86852 53.67 2.74961 53.2836C1.29304 48.795 2.45235 43.9497 5.78166 40.6203C8.59077 37.8112 12.5295 36.533 16.4384 37.1275L37.1277 16.4383C36.6075 12.9455 37.5439 9.43781 39.7584 6.73275C43.0432 2.71975 48.3492 1.15913 53.2838 2.74947C53.6702 2.86838 53.9674 3.19536 54.0566 3.5818C54.1458 3.9831 54.0418 4.39926 53.7445 4.68166L51.1881 7.23809C50.4449 7.98124 50.0288 8.97706 50.0288 10.0323C50.0288 11.0876 50.4449 12.0834 51.1881 12.8266C51.9312 13.5697 52.927 13.9859 53.9823 13.9859C55.0376 13.9859 56.0334 13.5697 56.7766 12.8266L59.333 10.2701C59.6154 9.98774 60.0315 9.86884 60.4328 9.95802C60.8341 10.0472 61.1463 10.3445 61.2652 10.7309C62.7218 15.2195 61.5624 20.0648 58.2331 23.3942C55.2011 26.4262 50.8165 27.6747 46.6549 26.7235L26.7087 46.6696C27.5559 50.4151 26.6642 54.3537 24.2415 57.2966C21.804 60.2692 18.2814 61.9041 14.6103 61.9041V61.8893ZM13.4212 59.4815C16.8249 59.8828 20.2136 58.5451 22.4431 55.8103C24.5239 53.2687 25.2076 49.8354 24.3009 46.625C24.182 46.2237 24.3009 45.7778 24.5982 45.4805L45.4807 24.5981C45.7779 24.3008 46.2238 24.1819 46.6251 24.3008C50.1774 25.3263 53.9972 24.3454 56.5982 21.7444C58.8128 19.5298 59.8532 16.468 59.4965 13.4211L58.4412 14.4764C57.2522 15.6654 55.6767 16.3194 53.9972 16.3194C52.3177 16.3194 50.7422 15.6654 49.5531 14.4764C48.3641 13.2873 47.7101 11.7118 47.7101 10.0323C47.7101 8.35282 48.3641 6.77734 49.5531 5.5883L50.6084 4.53303C47.2197 4.13173 43.816 5.4694 41.5866 8.20419C39.6841 10.5228 38.941 13.5846 39.5504 16.6018C39.6247 16.9882 39.5058 17.3746 39.2382 17.657L27.1695 29.7258L17.6869 39.2084C17.4045 39.4908 17.0181 39.6097 16.6316 39.5205C13.2875 38.8368 9.85412 39.8623 7.46118 42.2701C5.24659 44.4847 4.20619 47.5465 4.5629 50.5934L5.61817 49.5381C6.80721 48.3491 8.38268 47.6951 10.0622 47.6951C11.7417 47.6951 13.3172 48.3491 14.5062 49.5381C15.6953 50.7272 16.3492 52.3026 16.3492 53.9822C16.3492 55.6617 15.6953 57.2372 14.5062 58.4262L13.451 59.4815H13.4212Z" fill="white"/>
<path d="M20.7636 44.4105C20.4664 44.4105 20.1691 44.2916 19.9462 44.0686C19.4854 43.6079 19.4854 42.8796 19.9462 42.4189L42.4338 19.8866C42.8946 19.4258 43.6229 19.4258 44.0836 19.8866C44.5444 20.3473 44.5444 21.0756 44.0836 21.5364L21.5959 44.0686C21.373 44.2916 21.0757 44.4105 20.7636 44.4105Z" fill="white"/>
</g>
<defs>
<clipPath id="clip0_156_5953">
<rect width="64" height="64" fill="white"/>
</clipPath>
</defs>
</svg>
