<?xml version="1.0" encoding="utf-8"?>
<svg width="54" height="65" viewBox="0 0 54 65" fill="none" xmlns="http://www.w3.org/2000/svg">
<g clip-path="url(#clip0_156_5960)">
<path d="M24.5061 44.4057C23.864 44.4057 23.3413 43.8845 23.3413 43.2293V30.2888C23.3413 30.1548 23.3562 30.0208 23.401 29.9017L25.7158 23.3495C25.9248 22.739 26.5968 22.4263 27.2091 22.6348C27.8214 22.8432 28.135 23.5133 27.9259 24.1239L25.671 30.4973V43.2442C25.671 43.8845 25.1483 44.4206 24.4912 44.4206L24.5061 44.4057Z" fill="white"/>
<path d="M26.9253 44.4055C24.9391 44.4055 23.3412 42.7973 23.3412 40.8317V36.0367C23.3412 35.3964 23.8639 34.8752 24.506 34.8752C25.1482 34.8752 25.6858 35.3964 25.6858 36.0367V40.8317C25.6858 41.5167 26.2383 42.0676 26.9253 42.0676C27.6122 42.0676 28.1648 41.5167 28.1648 40.8317V28.7251C28.1648 25.9554 25.8949 23.6919 23.1172 23.6919H21.8926C21.2505 23.6919 20.7129 23.1707 20.7129 22.5155C20.7129 21.8603 21.2356 21.354 21.8926 21.354H23.1172C27.1941 21.354 30.5094 24.6598 30.5094 28.7251V40.8317C30.5094 42.7973 28.8965 44.4055 26.9253 44.4055Z" fill="white"/>
<path d="M24.506 65.0001H11.2151C10.573 65.0001 10.0503 64.4789 10.0503 63.8237V39.0001C10.0503 38.3598 10.573 37.8237 11.2151 37.8237C11.8573 37.8237 12.3949 38.3449 12.3949 39.0001V62.6622H23.3412V39.0001C23.3412 38.3598 23.8639 37.8237 24.506 37.8237C25.1482 37.8237 25.6858 38.3449 25.6858 39.0001V63.8386C25.6858 64.4789 25.1631 65.015 24.506 65.015V65.0001Z" fill="white"/>
<path d="M8.79598 44.4055C6.80981 44.4055 5.21191 42.7973 5.21191 40.8317V28.7251C5.21191 24.6598 8.52718 21.354 12.6041 21.354H13.8286C14.4708 21.354 15.0084 21.8752 15.0084 22.5155C15.0084 23.1558 14.4857 23.6919 13.8286 23.6919H12.6041C9.82641 23.6919 7.55649 25.9554 7.55649 28.7251V40.8317C7.55649 41.5167 8.10904 42.0676 8.79598 42.0676C9.48293 42.0676 10.0355 41.5167 10.0355 40.8317V36.0367C10.0355 35.3964 10.5582 34.8752 11.2003 34.8752C11.8424 34.8752 12.3801 35.3964 12.3801 36.0367V40.8317C12.3801 42.7973 10.7672 44.4055 8.79598 44.4055Z" fill="white"/>
<path d="M17.8607 65.0001C17.2185 65.0001 16.6809 64.4789 16.6809 63.8237V46.4755C16.6809 45.8352 17.2036 45.314 17.8607 45.314C18.5177 45.314 19.0255 45.8352 19.0255 46.4755V63.8237C19.0255 64.464 18.5028 65.0001 17.8607 65.0001Z" fill="white"/>
<path d="M11.2152 44.4054C10.573 44.4054 10.0503 43.8843 10.0503 43.229V30.4822L7.79535 24.1088C7.58628 23.4982 7.89989 22.8281 8.51217 22.6196C9.12445 22.3963 9.79646 22.7239 10.0055 23.3344L12.3202 29.8865C12.365 30.0057 12.38 30.1397 12.38 30.2737V43.2141C12.38 43.8545 11.8573 44.3906 11.2002 44.3906L11.2152 44.4054Z" fill="white"/>
<path d="M17.8607 19.8349C14.3065 19.8349 11.4243 16.9609 11.4243 13.4168C11.4243 12.9105 11.499 12.3893 11.6483 11.7936C11.7827 11.2724 12.2457 10.915 12.7833 10.915H22.9232C23.4608 10.915 23.9238 11.2724 24.0582 11.7936C24.2075 12.3893 24.2822 12.9105 24.2822 13.4168C24.2822 16.946 21.4 19.8349 17.8458 19.8349H17.8607ZM13.7838 13.2678C13.7838 13.2678 13.7838 13.3721 13.7838 13.4316C13.7838 15.6802 15.6207 17.5118 17.8756 17.5118C20.1306 17.5118 21.9675 15.6802 21.9675 13.4316C21.9675 13.3721 21.9675 13.3274 21.9675 13.2678H13.7988H13.7838Z" fill="white"/>
<path d="M24.1926 13.2682H11.5288C10.8867 13.2682 10.364 12.747 10.364 12.0918V11.2876C10.364 7.16277 13.7241 3.79736 17.8756 3.79736C22.0272 3.79736 25.3872 7.14788 25.3872 11.2876V12.0918C25.3872 12.7321 24.8646 13.2682 24.2075 13.2682H24.1926ZM12.7086 10.9302H22.9979C22.8037 8.26472 20.5786 6.15017 17.8458 6.15017C15.1129 6.15017 12.8878 8.26472 12.6937 10.9302H12.7086Z" fill="white"/>
<path d="M25.6859 13.2681H10.0354C9.39328 13.2681 8.87061 12.7469 8.87061 12.0917C8.87061 11.4365 9.39328 10.9302 10.0354 10.9302H25.6709C26.3131 10.9302 26.8507 11.4514 26.8507 12.0917C26.8507 12.732 26.328 13.2681 25.6709 13.2681H25.6859Z" fill="white"/>
<path d="M24.506 42.544H11.2151C10.573 42.544 10.0503 42.0228 10.0503 41.3676C10.0503 40.7124 10.573 40.2061 11.2151 40.2061H24.506C25.1482 40.2061 25.6858 40.7272 25.6858 41.3676C25.6858 42.0079 25.1631 42.544 24.506 42.544Z" fill="white"/>
<path d="M20.2798 29.2911H15.4413C14.9187 29.2911 14.4557 28.9486 14.3213 28.4423L12.7085 22.8283C12.5293 22.2029 12.8877 21.5626 13.5149 21.3839C14.1421 21.2052 14.7843 21.5626 14.9635 22.188L16.3374 26.9532H19.3987L20.7726 22.188C20.9518 21.5626 21.6089 21.2052 22.2212 21.3839C22.8484 21.5626 23.2068 22.2029 23.0276 22.8283L21.4148 28.4423C21.2655 28.9486 20.8174 29.2911 20.2948 29.2911H20.2798Z" fill="white"/>
<path d="M50.7445 65H1.16482C0.522677 65 0 64.4788 0 63.8236C0 63.1684 0.522677 62.6621 1.16482 62.6621H50.7445C51.3866 62.6621 51.9242 63.1833 51.9242 63.8236C51.9242 64.4639 51.4015 65 50.7445 65Z" fill="white"/>
<path d="M17.8607 9.70916C17.2185 9.70916 16.6809 9.18797 16.6809 8.53276V4.98866C16.6809 4.34834 17.2036 3.82715 17.8607 3.82715C18.5177 3.82715 19.0255 4.34834 19.0255 4.98866V8.54765C19.0255 9.18797 18.5028 9.72406 17.8607 9.72406V9.70916Z" fill="white"/>
<path d="M11.2151 31.4651C10.7969 31.4651 10.3788 31.2268 10.1697 30.8247C9.87104 30.244 10.095 29.5441 10.6775 29.2463L14.9037 27.0722C15.4861 26.7743 16.188 26.9977 16.4866 27.5785C16.7853 28.1592 16.5613 28.8591 15.9789 29.1569L11.7527 31.3311C11.5884 31.4204 11.3943 31.4651 11.2151 31.4651Z" fill="white"/>
<path d="M24.506 31.4651C24.3268 31.4651 24.1476 31.4204 23.9684 31.3311L19.7422 29.1569C19.1597 28.8591 18.9357 28.1592 19.2344 27.5785C19.5331 26.9977 20.235 26.7743 20.8174 27.0722L25.0436 29.2463C25.626 29.5441 25.85 30.244 25.5513 30.8247C25.3423 31.2268 24.9391 31.4651 24.506 31.4651Z" fill="white"/>
<path d="M21.2057 37.1983H14.5154C13.8733 37.1983 13.3506 36.6771 13.3506 36.0219C13.3506 35.3667 13.8733 34.8604 14.5154 34.8604H21.2057C21.8478 34.8604 22.3854 35.3815 22.3854 36.0219C22.3854 36.6622 21.8628 37.1983 21.2057 37.1983Z" fill="white"/>
<path d="M52.2379 34.0412H34.1084C33.4663 34.0412 32.9436 33.52 32.9436 32.8797C32.9436 32.2394 33.4663 31.7033 34.1084 31.7033H51.073V2.33792H7.67592V20.7881C7.67592 21.4284 7.15324 21.9496 6.49616 21.9496C5.83908 21.9496 5.31641 21.4284 5.31641 20.7881V1.1764C5.31641 0.536083 5.83908 0 6.49616 0H52.2379C52.88 0 53.4176 0.521191 53.4176 1.1764V32.8797C53.4176 33.52 52.8949 34.0412 52.2379 34.0412Z" fill="white"/>
<path d="M47.1455 8.81545H29.9419C29.2998 8.81545 28.7771 8.29426 28.7771 7.65394C28.7771 7.01362 29.2998 6.47754 29.9419 6.47754H47.1455C47.7876 6.47754 48.3252 6.99873 48.3252 7.65394C48.3252 8.30915 47.8025 8.81545 47.1455 8.81545Z" fill="white"/>
<path d="M47.1455 13.3277H29.9419C29.2998 13.3277 28.7771 12.8065 28.7771 12.1513C28.7771 11.496 29.2998 10.9897 29.9419 10.9897H47.1455C47.7876 10.9897 48.3252 11.5109 48.3252 12.1513C48.3252 12.7916 47.8025 13.3277 47.1455 13.3277Z" fill="white"/>
<path d="M52.2377 39.4316H29.3743C28.7322 39.4316 28.1946 38.9105 28.1946 38.2552C28.1946 37.6 28.7173 37.0788 29.3743 37.0788H51.0729V32.8497C51.0729 32.2094 51.5956 31.6733 52.2377 31.6733C52.8799 31.6733 53.4175 32.1945 53.4175 32.8497V38.2403C53.4175 38.8807 52.8948 39.4168 52.2377 39.4168V39.4316Z" fill="white"/>
<path d="M34.3323 28.6803C33.6902 28.6803 33.1526 28.1591 33.1526 27.5187V20.3412C33.1526 19.7009 33.6753 19.1797 34.3323 19.1797C34.9894 19.1797 35.5121 19.7009 35.5121 20.3412V27.5187C35.5121 28.1591 34.9894 28.6803 34.3323 28.6803Z" fill="white"/>
<path d="M39.6785 28.6803C39.0364 28.6803 38.4988 28.1591 38.4988 27.5187V22.9025C38.4988 22.2622 39.0215 21.7261 39.6785 21.7261C40.3356 21.7261 40.8434 22.2473 40.8434 22.9025V27.5187C40.8434 28.1591 40.3207 28.6803 39.6785 28.6803Z" fill="white"/>
<path d="M45.01 28.6802C44.3679 28.6802 43.8452 28.159 43.8452 27.5187V17.1991C43.8452 16.5588 44.3679 16.0376 45.01 16.0376C45.6522 16.0376 46.1898 16.5588 46.1898 17.1991V27.5187C46.1898 28.159 45.6671 28.6802 45.01 28.6802Z" fill="white"/>
<path d="M52.8352 54.9932H31.2711C30.6289 54.9932 30.0913 54.472 30.0913 53.8168C30.0913 53.1616 30.614 52.6553 31.2711 52.6553H52.8352C53.4774 52.6553 54 53.1765 54 53.8168C54 54.4571 53.4774 54.9932 52.8352 54.9932Z" fill="white"/>
<path d="M52.8352 48.7984H31.2711C30.6289 48.7984 30.0913 48.2772 30.0913 47.622C30.0913 46.9667 30.614 46.4604 31.2711 46.4604H52.8352C53.4774 46.4604 54 46.9816 54 47.622C54 48.2623 53.4774 48.7984 52.8352 48.7984Z" fill="white"/>
</g>
<defs>
<clipPath id="clip0_156_5960">
<rect width="54" height="65" fill="white"/>
</clipPath>
</defs>
</svg>
