<?xml version="1.0" encoding="utf-8"?>
<svg width="63" height="61" viewBox="0 0 63 61" fill="none" xmlns="http://www.w3.org/2000/svg">
<g clip-path="url(#clip0_156_5932)">
<path d="M4.18967 61.0002C3.58512 61.0002 3.07898 60.5116 3.07898 59.9114V48.1581C3.07898 38.8755 9.47599 31.3238 17.3492 31.3238C19.0223 31.3238 20.4845 30.2629 21.0047 28.6856C21.089 28.4203 21.1593 28.1551 21.2296 27.8899C21.314 27.5688 21.5389 27.3036 21.8482 27.164C22.1575 27.0245 22.495 27.0384 22.8043 27.178C25.3349 28.4343 28.3015 28.4343 30.8462 27.178C31.1415 27.0245 31.4929 27.0245 31.8023 27.164C32.1116 27.3036 32.3365 27.5688 32.4068 27.8899C32.4771 28.1551 32.5474 28.4203 32.6318 28.6856C33.1379 30.2629 34.6141 31.3238 36.2872 31.3238C37.187 31.3238 38.0868 31.4215 38.9585 31.6169C39.549 31.7425 39.9286 32.3288 39.788 32.929C39.6474 33.5153 39.0569 33.8922 38.4664 33.7526C37.7494 33.5991 37.0183 33.5153 36.2872 33.5153C33.7565 33.5153 31.5351 31.9798 30.6353 29.6487C28.189 30.5421 25.4474 30.5421 23.0011 29.6487C22.1154 31.9659 19.8799 33.5153 17.3492 33.5153C10.6992 33.5153 5.2863 40.0899 5.2863 48.1581V59.9114C5.2863 60.5116 4.79422 61.0002 4.18967 61.0002Z" fill="white"/>
<path d="M26.8253 30.3046C20.6532 30.3046 15.62 25.3073 15.62 19.1794V16.8762C15.62 16.276 16.1121 15.7734 16.7307 15.7734C17.3493 15.7734 17.8273 16.262 17.8273 16.8762V19.1794C17.8273 24.1068 21.8624 28.113 26.8253 28.113C31.7883 28.113 35.8233 24.1068 35.8233 19.1794V17.0716C35.8233 16.4714 36.3154 15.9828 36.9199 15.9828C37.5245 15.9828 38.0306 16.4714 38.0306 17.0716V19.1794C38.0306 25.3073 32.9974 30.3046 26.8253 30.3046Z" fill="white"/>
<path d="M42.3608 17.9787H11.2896C10.6851 17.9787 10.179 17.4902 10.179 16.89V13.7492C10.179 13.149 10.671 12.6465 11.2896 12.6465H14.0875C14.692 12.6465 15.1841 13.135 15.1841 13.7492C15.1841 14.3634 14.692 14.838 14.0875 14.838H12.4003V15.7872H41.2642V14.838H39.5771C38.9725 14.838 38.4805 14.3495 38.4805 13.7492C38.4805 13.149 38.9725 12.6465 39.5771 12.6465H42.3749C42.9794 12.6465 43.4856 13.135 43.4856 13.7492V16.89C43.4856 17.4902 42.9935 17.9787 42.3749 17.9787H42.3608Z" fill="white"/>
<path d="M39.5631 14.8382C38.9585 14.8382 38.4664 14.3497 38.4664 13.7494C38.4664 7.38421 33.2504 2.19153 26.8253 2.19153C20.4001 2.19153 15.1841 7.37025 15.1841 13.7494C15.1841 14.3497 14.692 14.8382 14.0875 14.8382C13.4829 14.8382 12.9768 14.3497 12.9768 13.7494C12.9768 6.16979 19.191 0 26.8253 0C34.4595 0 40.6737 6.16979 40.6737 13.7494C40.6737 14.3497 40.1817 14.8382 39.5631 14.8382Z" fill="white"/>
<path d="M26.8253 12.1304C25.9817 12.1304 25.1241 11.8652 24.4071 11.3347L20.9204 8.75237C20.6392 8.54299 20.4705 8.22193 20.4705 7.87296V2.21965C20.4705 1.61942 20.9625 1.13086 21.5811 1.13086C22.1998 1.13086 22.6778 1.61942 22.6778 2.21965V7.32857L25.7287 9.57594C26.3894 10.0645 27.2752 10.0645 27.936 9.57594L30.9869 7.32857V2.21965C30.9869 1.61942 31.4789 1.13086 32.0835 1.13086C32.688 1.13086 33.1942 1.61942 33.1942 2.21965V7.87296C33.1942 8.22193 33.0255 8.54299 32.7443 8.75237L29.2576 11.3347C28.5405 11.8652 27.6829 12.1304 26.8393 12.1304H26.8253Z" fill="white"/>
<path d="M61.8893 61.0001H1.09663C0.492078 61.0001 0 60.5116 0 59.9113C0 59.3111 0.492078 58.8086 1.09663 58.8086H61.8893C62.4939 58.8086 63 59.2971 63 59.9113C63 60.5255 62.5079 61.0001 61.8893 61.0001Z" fill="white"/>
<path d="M12.0207 60.9998C11.4162 60.9998 10.9241 60.5112 10.9241 59.911V33.7522C10.9241 33.1519 11.4162 32.6494 12.0207 32.6494C12.6253 32.6494 13.1314 33.138 13.1314 33.7522V59.897C13.1314 60.4972 12.6393 60.9858 12.0207 60.9858V60.9998Z" fill="white"/>
<path d="M36.2873 44.9332H17.3634C16.7588 44.9332 16.2667 44.4446 16.2667 43.8304V32.3982C16.2667 31.7979 16.7588 31.2954 17.3634 31.2954C17.9679 31.2954 18.474 31.784 18.474 32.3982V42.7416H35.1906V32.3982C35.1906 31.7979 35.6827 31.2954 36.3013 31.2954C36.9199 31.2954 37.3979 31.784 37.3979 32.3982V43.8304C37.3979 44.4307 36.9059 44.9332 36.3013 44.9332H36.2873Z" fill="white"/>
<path d="M17.3634 46.4132C16.7588 46.4132 16.2667 45.9246 16.2667 45.3104V43.8308C16.2667 43.2305 16.7588 42.728 17.3634 42.728C17.9679 42.728 18.474 43.2166 18.474 43.8308V45.3104C18.474 45.9106 17.982 46.4132 17.3634 46.4132Z" fill="white"/>
<path d="M36.2872 46.4132C35.6826 46.4132 35.1765 45.9246 35.1765 45.3104V43.8308C35.1765 43.2305 35.6686 42.728 36.2872 42.728C36.9058 42.728 37.3838 43.2166 37.3838 43.8308V45.3104C37.3838 45.9106 36.8918 46.4132 36.2872 46.4132Z" fill="white"/>
<path d="M36.2873 60.9998H17.3634C16.7588 60.9998 16.2667 60.5112 16.2667 59.911V52.5268C16.2667 50.9495 17.5602 49.6792 19.1348 49.6792H34.5298C36.1185 49.6792 37.3979 50.9634 37.3979 52.5268V59.911C37.3979 60.5112 36.9059 60.9998 36.3013 60.9998H36.2873ZM18.46 58.8083H35.1766V52.5268C35.1766 52.1639 34.8813 51.8707 34.5158 51.8707H19.1208C18.7552 51.8707 18.46 52.1639 18.46 52.5268V58.8083Z" fill="white"/>
<path d="M26.8253 5.76499C26.2207 5.76499 25.7146 5.27643 25.7146 4.66224V1.10275C25.7146 0.502517 26.2067 0 26.8253 0C27.4439 0 27.9219 0.488558 27.9219 1.10275V4.6762C27.9219 5.27643 27.4298 5.77895 26.8253 5.77895V5.76499Z" fill="white"/>
<path d="M50.9231 39.7406C50.5575 39.7406 50.1779 39.6988 49.8124 39.629C47.7597 39.2102 46.1429 37.5352 45.7914 35.4832C45.4258 33.3754 46.3678 31.2956 48.1393 30.1928V29.0063C48.1393 27.4708 49.3906 26.2285 50.9371 26.2285C52.4836 26.2285 53.7349 27.4708 53.7349 29.0063V30.1928C55.2252 31.142 56.1672 32.7892 56.1672 34.5619C56.1672 36.1253 55.4642 37.6049 54.2411 38.596C53.2991 39.3498 52.1462 39.7546 50.9371 39.7546L50.9231 39.7406ZM50.9231 28.42C50.5997 28.42 50.3326 28.6853 50.3326 29.0063V30.8349C50.3326 31.2676 50.0795 31.6585 49.6858 31.84C48.4064 32.4123 47.7175 33.7244 47.9565 35.1063C48.1534 36.2649 49.1094 37.242 50.2623 37.4793C51.2042 37.6747 52.104 37.4654 52.8211 36.8791C53.524 36.3068 53.9318 35.4553 53.9318 34.548C53.9318 33.3754 53.2288 32.3146 52.1462 31.826C51.7526 31.6445 51.4995 31.2537 51.4995 30.821V28.9924C51.4995 28.6713 51.2324 28.4061 50.909 28.4061L50.9231 28.42Z" fill="white"/>
<path d="M60.2303 61.0002H41.6157C41.0111 61.0002 40.505 60.5116 40.505 59.9114V34.5483C40.505 33.948 40.9971 33.4595 41.6157 33.4595H45.8194C46.1147 32.1194 46.9442 30.9329 48.1252 30.1791V28.9926C48.1252 27.4572 49.3765 26.2148 50.923 26.2148C52.4695 26.2148 53.7208 27.4572 53.7208 28.9926V30.1791C54.9018 30.919 55.7313 32.1055 56.0265 33.4595H60.2303C60.8348 33.4595 61.3269 33.948 61.3269 34.5483V59.8975C61.3269 60.4977 60.8348 60.9862 60.2303 60.9862V61.0002ZM42.7264 58.8087H59.1337V35.651H55.0564C54.4519 35.651 53.9598 35.1624 53.9598 34.5483C53.9598 33.3757 53.2568 32.3148 52.1743 31.8263C51.7806 31.6448 51.5275 31.254 51.5275 30.8212V28.9926C51.5275 28.6716 51.2604 28.4064 50.9371 28.4064C50.6137 28.4064 50.3466 28.6716 50.3466 28.9926V30.8212C50.3466 31.254 50.0935 31.6448 49.6998 31.8263C48.6173 32.3148 47.9284 33.3757 47.9143 34.5483C47.9143 35.1485 47.4222 35.637 46.8036 35.637H42.7264V58.7947V58.8087Z" fill="white"/>
<path d="M48.9546 47.6415H45.257C44.6525 47.6415 44.1604 47.1529 44.1604 46.5527V42.8816C44.1604 42.2813 44.6525 41.7788 45.257 41.7788H48.9546C49.5592 41.7788 50.0513 42.2674 50.0513 42.8816V46.5527C50.0513 47.1529 49.5592 47.6415 48.9546 47.6415ZM46.3677 45.45H47.858V43.9703H46.3677V45.45Z" fill="white"/>
<path d="M48.9546 55.863H45.257C44.6525 55.863 44.1604 55.3744 44.1604 54.7602V51.0891C44.1604 50.4888 44.6525 49.9863 45.257 49.9863H48.9546C49.5592 49.9863 50.0513 50.4749 50.0513 51.0891V54.7602C50.0513 55.3605 49.5592 55.863 48.9546 55.863ZM46.3677 53.6715H47.858V52.1918H46.3677V53.6715Z" fill="white"/>
<path d="M56.5327 43.6493H52.4555C51.851 43.6493 51.3589 43.1608 51.3589 42.5466C51.3589 41.9324 51.851 41.4438 52.4555 41.4438H56.5327C57.1373 41.4438 57.6434 41.9324 57.6434 42.5466C57.6434 43.1608 57.1513 43.6493 56.5327 43.6493Z" fill="white"/>
<path d="M56.5327 47.0829H52.4555C51.851 47.0829 51.3589 46.5944 51.3589 45.9802C51.3589 45.366 51.851 44.8774 52.4555 44.8774H56.5327C57.1373 44.8774 57.6434 45.366 57.6434 45.9802C57.6434 46.5944 57.1513 47.0829 56.5327 47.0829Z" fill="white"/>
<path d="M56.5327 51.8849H52.4555C51.851 51.8849 51.3589 51.3963 51.3589 50.7822C51.3589 50.168 51.851 49.6934 52.4555 49.6934H56.5327C57.1373 49.6934 57.6434 50.1819 57.6434 50.7822C57.6434 51.3824 57.1513 51.8849 56.5327 51.8849Z" fill="white"/>
<path d="M56.5327 55.319H52.4555C51.851 55.319 51.3589 54.8304 51.3589 54.2302C51.3589 53.63 51.851 53.1274 52.4555 53.1274H56.5327C57.1373 53.1274 57.6434 53.616 57.6434 54.2302C57.6434 54.8444 57.1513 55.319 56.5327 55.319Z" fill="white"/>
</g>
<defs>
<clipPath id="clip0_156_5932">
<rect width="63" height="61" fill="white"/>
</clipPath>
</defs>
</svg>
