<?xml version="1.0" encoding="utf-8"?>
<svg width="67" height="61" viewBox="0 0 67 61" fill="none" xmlns="http://www.w3.org/2000/svg">
<g clip-path="url(#clip0_156_5887)">
<path d="M19.6071 60.9998H6.56139C6.14553 60.9998 5.74507 60.7894 5.52944 60.4286C5.31381 60.0678 5.29841 59.6319 5.49864 59.2711C6.00691 58.3391 6.42277 57.1666 6.73082 55.7987C7.54714 52.1459 6.88484 48.1174 4.83634 44.4345C3.80438 42.5856 3.2807 40.4811 3.29611 38.3766C3.29611 37.7302 3.83519 37.2041 4.51289 37.2041C5.19059 37.2041 5.72967 37.7453 5.72967 38.3916C5.72967 40.1053 6.14553 41.8039 6.97726 43.3071C9.303 47.486 10.0577 52.1008 9.10277 56.3098C8.91795 57.1516 8.68691 57.9333 8.42507 58.6398H18.4366V53.9648C18.4366 53.3184 18.9756 52.7773 19.6533 52.7773H22.9494C24.5667 52.7773 25.9067 51.6349 26.1839 50.1316L25.9837 49.9813C25.8605 49.8761 25.7373 49.7558 25.6602 49.6206C25.1212 48.6735 25.4292 47.501 26.3688 46.9449L27.1235 46.4939V45.6371C27.1235 44.7802 27.7858 44.0737 28.6329 43.9986L27.5393 42.3751C26.8616 41.3529 26.5228 40.1804 26.5998 39.053C26.5998 38.8576 26.6152 38.6772 26.6152 38.4818C26.6152 37.8354 27.1543 37.2943 27.8166 37.2943C28.4789 37.2943 29.0333 37.8204 29.0333 38.4818C29.0333 38.7223 29.0333 38.9628 29.0025 39.2034C28.9563 39.8197 29.1566 40.4811 29.557 41.0824L30.974 43.1869C31.4053 43.8182 31.4361 44.6149 31.0665 45.2913C30.743 45.8626 30.1731 46.2534 29.5262 46.3436V46.524C29.5262 47.3357 29.0796 48.1023 28.371 48.5232L28.14 48.6585C28.4481 48.884 28.6175 49.2297 28.6175 49.6055C28.6175 52.6721 26.0607 55.1674 22.9186 55.1674H20.8239V59.8423C20.8239 60.4887 20.2848 61.0299 19.6225 61.0299L19.6071 60.9998Z" fill="white"/>
<path d="M29.8497 39.5641H2.26414C1.60185 39.5641 1.04736 39.038 1.04736 38.3766C1.04736 30.3044 7.77817 23.7354 16.0492 23.7354C24.3202 23.7354 31.051 30.3044 31.051 38.3766C31.051 39.0229 30.512 39.5641 29.8497 39.5641ZM3.52713 37.2041H28.5867C27.9706 30.9808 22.5952 26.1104 16.0646 26.1104C9.53403 26.1104 4.14323 30.9958 3.54254 37.2041H3.52713Z" fill="white"/>
<path d="M23.0265 32.8752C22.7184 32.8752 22.4104 32.755 22.1794 32.5295C20.5467 30.9361 18.375 30.0642 16.0647 30.0642C13.7543 30.0642 11.6288 30.9211 9.99615 32.4994C9.51868 32.9504 8.74856 32.9504 8.28649 32.4994C7.82442 32.0334 7.82442 31.2818 8.28649 30.8309C10.3658 28.8316 13.1228 27.7192 16.0493 27.7192C18.9757 27.7192 21.7789 28.8466 23.8736 30.876C24.3511 31.342 24.3511 32.0785 23.8736 32.5445C23.6426 32.77 23.3345 32.8903 23.0111 32.8903L23.0265 32.8752Z" fill="white"/>
<path d="M31.8982 39.5641H28.6329C27.9706 39.5641 27.4315 39.038 27.4315 38.3766C27.4315 37.7152 27.9706 37.2041 28.6329 37.2041H31.8982C32.5605 37.2041 33.115 37.7302 33.115 38.3766C33.115 39.023 32.5759 39.5641 31.8982 39.5641Z" fill="white"/>
<path d="M3.94299 39.5641H1.20138C0.53908 39.5641 0 39.038 0 38.3766C0 37.7152 0.53908 37.2041 1.20138 37.2041H3.94299C4.60529 37.2041 5.14437 37.7302 5.14437 38.3766C5.14437 39.023 4.60529 39.5641 3.94299 39.5641Z" fill="white"/>
<path d="M60.4541 61.0002H47.3929C46.7306 61.0002 46.1761 60.4741 46.1761 59.8127V55.1377H44.0814C40.9394 55.1377 38.3826 52.6424 38.3826 49.5758C38.3826 49.2 38.552 48.8543 38.86 48.6439L38.6444 48.5086C37.9359 48.0877 37.4892 47.321 37.4892 46.5093V46.3289C36.8423 46.2387 36.2725 45.8479 35.949 45.2767C35.5794 44.6153 35.6256 43.8035 36.0414 43.1872L37.4584 41.0828C37.8589 40.4965 38.0591 39.8351 38.0129 39.2037C37.9975 38.9632 37.9821 38.7227 37.9821 38.4822C37.9821 37.8358 38.5212 37.2947 39.1835 37.2947C39.8458 37.2947 40.4003 37.8208 40.4003 38.4822C40.4003 38.6776 40.4003 38.858 40.4157 39.0534C40.4927 40.1808 40.1538 41.3684 39.4761 42.3755L38.3826 43.999C39.2297 44.0892 39.9074 44.7957 39.9074 45.6375V46.4943L40.6621 46.9302C41.6017 47.4864 41.9251 48.6739 41.3706 49.6059C41.2936 49.7412 41.1858 49.8615 41.0472 49.9667L40.8469 50.117C41.1088 51.6202 42.4642 52.7626 44.0814 52.7626H47.3775C48.0398 52.7626 48.5789 53.2888 48.5789 53.9502V58.6251H58.5904C58.3286 57.9036 58.0975 57.137 57.9127 56.2952C56.9577 52.0862 57.7279 47.4714 60.0382 43.2925C60.8699 41.7893 61.3012 40.0906 61.2858 38.377C61.2858 37.7306 61.8095 37.1895 62.4872 37.1895C63.1649 37.1895 63.704 37.7156 63.704 38.362C63.7194 40.4815 63.1803 42.5709 62.1637 44.4199C60.1152 48.1027 59.4529 52.1313 60.2692 55.7841C60.5773 57.152 60.9932 58.3095 61.5014 59.2565C61.7017 59.6172 61.6863 60.0682 61.4706 60.4139C61.255 60.7597 60.8545 60.9852 60.4387 60.9852L60.4541 61.0002Z" fill="white"/>
<path d="M64.7359 39.5641H37.1504C36.4881 39.5641 35.9336 39.038 35.9336 38.3766C35.9336 30.3044 42.6644 23.7354 50.9354 23.7354C59.2065 23.7354 65.9373 30.3044 65.9373 38.3766C65.9373 39.0229 65.3982 39.5641 64.7359 39.5641ZM38.4134 37.2041H63.4575C62.8414 30.9808 57.466 26.1104 50.9354 26.1104C44.4049 26.1104 39.0295 30.9958 38.4134 37.2041Z" fill="white"/>
<path d="M43.9735 32.8751C43.6655 32.8751 43.3574 32.7549 43.1264 32.5294C42.6489 32.0634 42.6489 31.3268 43.1264 30.8608C45.2211 28.8165 47.9935 27.7041 50.9508 27.7041C53.908 27.7041 56.6342 28.8014 58.7135 30.8157C59.191 31.2667 59.191 32.0183 58.7135 32.4843C58.2515 32.9503 57.4814 32.9503 57.0039 32.4843C55.3712 30.921 53.2149 30.0491 50.9354 30.0491C48.6558 30.0491 46.4533 30.921 44.8207 32.5144C44.5896 32.7398 44.2816 32.8601 43.9581 32.8601L43.9735 32.8751Z" fill="white"/>
<path d="M38.3672 39.5641H35.1019C34.4396 39.5641 33.9005 39.038 33.9005 38.3766C33.9005 37.7152 34.4396 37.2041 35.1019 37.2041H38.3672C39.0295 37.2041 39.584 37.7302 39.584 38.3766C39.584 39.023 39.0449 39.5641 38.3672 39.5641Z" fill="white"/>
<path d="M65.7986 39.5641H63.057C62.3947 39.5641 61.8402 39.038 61.8402 38.3766C61.8402 37.7152 62.3793 37.2041 63.057 37.2041H65.7986C66.4609 37.2041 67.0154 37.7302 67.0154 38.3766C67.0154 39.023 66.4763 39.5641 65.7986 39.5641Z" fill="white"/>
<path d="M64.4278 61.0002H3.55795C2.89565 61.0002 2.35657 60.474 2.35657 59.8126C2.35657 59.1512 2.89565 58.6401 3.55795 58.6401H64.4278C65.0901 58.6401 65.6446 59.1663 65.6446 59.8126C65.6446 60.459 65.1055 61.0002 64.4278 61.0002Z" fill="white"/>
<path d="M11.336 23.2998C11.028 23.2998 10.72 23.1795 10.4889 22.954C10.1039 22.5782 10.0114 21.992 10.2887 21.526L13.3075 16.37C12.6606 15.1524 12.3218 13.8296 12.3218 12.4917C12.3218 7.47104 16.9271 3.38232 22.5951 3.38232C28.2632 3.38232 32.8685 7.47104 32.8685 12.4917C32.8685 17.5124 28.2632 21.6012 22.5951 21.6012C20.6236 21.6012 18.7291 21.1051 17.0811 20.1731L11.9521 23.1344C11.7673 23.2396 11.5517 23.2998 11.336 23.2998ZM17.0965 17.6026C17.3429 17.6026 17.574 17.6778 17.7742 17.8131C19.1758 18.7451 20.8393 19.2411 22.5797 19.2411C26.9078 19.2411 30.4349 16.2197 30.4349 12.4917C30.4349 8.76379 26.9078 5.74235 22.5797 5.74235C18.2517 5.74235 14.7245 8.76379 14.7245 12.4917C14.7245 13.6191 15.0634 14.7465 15.7103 15.7537C15.9413 16.1295 15.9567 16.5955 15.7411 16.9713L14.6475 18.8353L16.465 17.783C16.6498 17.6778 16.8655 17.6177 17.0811 17.6177L17.0965 17.6026Z" fill="white"/>
<path d="M57.7278 19.9024C57.5122 19.9024 57.2966 19.8423 57.1118 19.7371L51.9828 16.7758C50.3347 17.7077 48.4403 18.2038 46.4688 18.2038C40.8007 18.2038 36.1954 14.1151 36.1954 9.09438C36.1954 4.07368 40.8007 0 46.4688 0C52.1368 0 56.7421 4.08871 56.7421 9.10941C56.7421 10.4473 56.4032 11.7851 55.7564 12.9877L58.7752 18.1437C59.0524 18.6097 58.96 19.1959 58.575 19.5717C58.3439 19.7972 58.0359 19.9174 57.7278 19.9174V19.9024ZM46.4688 2.36003C42.1407 2.36003 38.6136 5.38147 38.6136 9.10941C38.6136 12.8374 42.1407 15.8588 46.4688 15.8588C48.2246 15.8588 49.8881 15.3627 51.2743 14.4308C51.6593 14.1752 52.1676 14.1602 52.5681 14.3857L54.3856 15.4379L53.292 13.5739C53.0764 13.1981 53.0764 12.7321 53.3228 12.3563C53.9697 11.3642 54.3085 10.2368 54.3085 9.09438C54.3085 5.38147 50.7814 2.345 46.4534 2.345L46.4688 2.36003Z" fill="white"/>
<path d="M24.9672 13.6042H20.0384C19.3761 13.6042 18.8217 13.078 18.8217 12.4317C18.8217 11.7853 19.3607 11.2441 20.0384 11.2441H24.9672C25.6295 11.2441 26.184 11.7703 26.184 12.4317C26.184 13.0931 25.6449 13.6042 24.9672 13.6042Z" fill="white"/>
<path d="M48.9023 10.4172H43.9736C43.3113 10.4172 42.7722 9.89104 42.7722 9.24466C42.7722 8.59828 43.3113 8.05713 43.9736 8.05713H48.9023C49.5646 8.05713 50.1191 8.58325 50.1191 9.24466C50.1191 9.90607 49.58 10.4172 48.9023 10.4172Z" fill="white"/>
</g>
<defs>
<clipPath id="clip0_156_5887">
<rect width="67" height="61" fill="white"/>
</clipPath>
</defs>
</svg>
