<?xml version="1.0" encoding="utf-8"?>
<svg width="63" height="60" viewBox="0 0 63 60" fill="none" xmlns="http://www.w3.org/2000/svg">
<g clip-path="url(#clip0_156_5874)">
<path d="M27.854 32.5962C27.1609 32.5529 26.6844 32.0193 26.7277 31.3991C27.0165 26.5818 30.8141 24.3895 33.4421 23.7116V11.6106C33.4421 10.9904 33.9475 10.4712 34.5684 10.4712C35.1893 10.4712 35.7091 10.976 35.7091 11.6106V24.6202C35.7091 25.1827 35.2904 25.6731 34.7272 25.7452C34.5107 25.7741 29.298 26.5529 28.9947 31.5145C28.9658 32.1202 28.4605 32.5818 27.8684 32.5818L27.854 32.5962Z" fill="white"/>
<path d="M34.5685 49.1104H10.5843C9.96338 49.1104 9.44355 48.6056 9.44355 47.971V43.1969C9.44355 39.9373 8.9526 36.721 7.98515 33.6056L7.29205 31.3556C6.81554 29.8123 6.57007 28.1969 6.57007 26.5816V24.5191C6.57007 23.8989 7.07545 23.3796 7.7108 23.3796C8.34614 23.3796 8.83709 23.8844 8.83709 24.5191V26.5816C8.83709 27.9662 9.05368 29.3508 9.45799 30.6777L10.1511 32.9277C11.1907 36.2594 11.7106 39.7066 11.7106 43.1825V46.8316H33.4277V38.1056C33.4277 37.8171 33.5433 37.5431 33.731 37.3412L39.6079 31.0383C41.1818 29.3364 42.0626 27.1296 42.0626 24.8219V11.8412C42.0626 10.0816 40.7919 8.59598 39.1603 8.45175C38.2506 8.37963 37.3842 8.66809 36.72 9.27386C36.0702 9.87963 35.6803 10.7306 35.6803 11.6248C35.6803 12.245 35.1749 12.7642 34.554 12.7642C33.9331 12.7642 33.4133 12.2594 33.4133 11.6248C33.4133 10.096 34.0631 8.63925 35.1749 7.61521C36.3012 6.59117 37.8174 6.07194 39.348 6.20175C42.1348 6.44694 44.3152 8.92771 44.3152 11.8412V24.8219C44.3152 27.7066 43.2322 30.4758 41.254 32.5816L35.6803 38.5671V47.971C35.6803 48.5912 35.1749 49.1104 34.554 49.1104H34.5685Z" fill="white"/>
<path d="M36.1856 60H8.98139C8.36049 60 7.8551 59.4952 7.8551 58.875V47.9856C7.8551 47.3654 8.36049 46.8462 8.98139 46.8462H36.1856C36.8065 46.8462 37.3119 47.351 37.3119 47.9856V58.875C37.3119 59.4952 36.8065 60 36.1856 60ZM10.1221 57.7356H35.0449V49.1106H10.1077V57.7356H10.1221Z" fill="white"/>
<path d="M31.2184 20.6541C28.7492 20.6541 26.7277 18.6348 26.7277 16.1685V5.81273C26.7277 3.34638 28.7492 1.32715 31.2184 1.32715C33.6876 1.32715 35.7091 3.33196 35.7091 5.81273V16.1829C35.7091 18.6493 33.6876 20.6685 31.2184 20.6685V20.6541ZM31.2184 3.57715C29.991 3.57715 28.9947 4.57234 28.9947 5.7983V16.1685C28.9947 17.3945 29.991 18.3896 31.2184 18.3896C32.4457 18.3896 33.4421 17.3945 33.4421 16.1685V5.81273C33.4421 4.58676 32.4457 3.59157 31.2184 3.59157V3.57715Z" fill="white"/>
<path d="M24.504 21.9808C22.0348 21.9808 20.0133 19.9615 20.0133 17.4952V4.48558C20.0133 2.01923 22.0348 0 24.504 0C26.9732 0 28.9947 2.01923 28.9947 4.48558V17.4952C28.9947 19.9615 26.9732 21.9808 24.504 21.9808ZM24.504 2.26442C23.2767 2.26442 22.2803 3.25962 22.2803 4.48558V17.4952C22.2803 18.7212 23.2767 19.7163 24.504 19.7163C25.7314 19.7163 26.7277 18.7212 26.7277 17.4952V4.48558C26.7277 3.25962 25.7314 2.26442 24.504 2.26442Z" fill="white"/>
<path d="M17.7895 20.6541C15.3204 20.6541 13.2988 18.6348 13.2988 16.1685V5.81273C13.2988 3.34638 15.3204 1.32715 17.7895 1.32715C20.2587 1.32715 22.2803 3.33196 22.2803 5.81273V16.1829C22.2803 18.6493 20.2587 20.6685 17.7895 20.6685V20.6541ZM17.7895 3.57715C16.5622 3.57715 15.5658 4.57234 15.5658 5.7983V16.1685C15.5658 17.3945 16.5622 18.3896 17.7895 18.3896C19.0169 18.3896 20.0132 17.3945 20.0132 16.1685V5.81273C20.0132 4.58676 19.0169 3.59157 17.7895 3.59157V3.57715Z" fill="white"/>
<path d="M11.0752 19.5001C8.60602 19.5001 6.58447 17.4808 6.58447 15.0145V8.74046C6.58447 6.27411 8.60602 4.25488 11.0752 4.25488C13.5444 4.25488 15.5659 6.27411 15.5659 8.74046V15.0145C15.5659 17.4808 13.5444 19.5001 11.0752 19.5001ZM11.0752 6.51931C9.84782 6.51931 8.85149 7.5145 8.85149 8.74046V15.0145C8.85149 16.2405 9.84782 17.2357 11.0752 17.2357C12.3026 17.2357 13.2989 16.2405 13.2989 15.0145V8.74046C13.2989 7.5145 12.3026 6.51931 11.0752 6.51931Z" fill="white"/>
<path d="M34.5684 25.6586H6.54114C2.93124 25.6586 0 22.7307 0 19.125C0 15.5192 2.93124 12.5913 6.54114 12.5913H7.71075C8.33165 12.5913 8.83704 13.0961 8.83704 13.7307C8.83704 14.3653 8.33165 14.8702 7.71075 14.8702H6.54114C4.18749 14.8702 2.26702 16.7884 2.26702 19.1394C2.26702 21.4903 4.18749 23.4086 6.54114 23.4086H34.5684C35.1893 23.4086 35.6947 23.9134 35.6947 24.548C35.6947 25.1827 35.1893 25.6875 34.5684 25.6875V25.6586Z" fill="white"/>
<path d="M43.2033 59.9998H3.78315C3.16225 59.9998 2.65686 59.495 2.65686 58.8748C2.65686 58.2546 3.16225 57.7354 3.78315 57.7354H43.2033C43.8242 57.7354 44.344 58.2402 44.344 58.8748C44.344 59.5094 43.8386 59.9998 43.2033 59.9998Z" fill="white"/>
<path d="M51.3039 25.6586H43.2033C42.5824 25.6586 42.077 25.1538 42.077 24.5192V13.7307C42.077 13.1105 42.5824 12.5913 43.2033 12.5913H51.3039C51.9248 12.5913 52.4447 13.0961 52.4447 13.7307C52.4447 14.3653 51.9393 14.8702 51.3039 14.8702H44.344V23.3942H51.3039C51.9248 23.3942 52.4447 23.899 52.4447 24.5336C52.4447 25.1682 51.9393 25.673 51.3039 25.673V25.6586Z" fill="white"/>
<path d="M57.9606 33.0578H55.2171C52.4447 33.0578 50.1776 30.7934 50.1776 28.0242V11.2069C50.1776 10.904 50.2932 10.6155 50.5098 10.4136L51.6649 9.24534C51.8238 9.08669 51.9104 8.88477 51.896 8.66842C51.896 8.45207 51.8093 8.25015 51.6505 8.0915L50.5098 6.98092C50.2932 6.76457 50.1632 6.47611 50.1632 6.17323V1.77419C50.1632 1.154 50.6686 0.634766 51.2895 0.634766H61.8448C62.4658 0.634766 62.9856 1.13957 62.9856 1.77419V6.1588C62.9856 6.46169 62.8556 6.75015 62.639 6.9665L61.4983 8.07707C61.3395 8.23573 61.2528 8.43765 61.2528 8.654C61.2528 8.87034 61.3395 9.08669 61.4839 9.23092L62.639 10.3992C62.8556 10.6155 62.9711 10.904 62.9711 11.1925V28.0098C62.9711 30.779 60.7041 33.0434 57.9317 33.0434L57.9606 33.0578ZM52.4447 11.6684V28.0242C52.4447 29.553 53.6865 30.7934 55.2171 30.7934H57.9606C59.4912 30.7934 60.733 29.553 60.733 28.0242V11.6684L59.8955 10.8319C59.3179 10.2405 59.0002 9.46169 59.0002 8.63957C59.0002 7.81746 59.3324 7.03861 59.9388 6.46169L60.733 5.68284V2.89919H52.4447V5.68284L53.2388 6.46169C53.8309 7.03861 54.163 7.81746 54.1774 8.63957C54.1774 9.46169 53.8742 10.255 53.2822 10.8319L52.4447 11.6684Z" fill="white"/>
<path d="M61.8593 25.9327H55.6214C55.0005 25.9327 54.4951 25.4278 54.4951 24.7932C54.4951 24.1586 55.0005 23.6538 55.6214 23.6538H61.8593C62.4802 23.6538 63 24.1586 63 24.7932C63 25.4278 62.4947 25.9327 61.8593 25.9327Z" fill="white"/>
</g>
<defs>
<clipPath id="clip0_156_5874">
<rect width="63" height="60" fill="white"/>
</clipPath>
</defs>
</svg>
