<?xml version="1.0" encoding="utf-8"?>
<svg width="61" height="65" viewBox="0 0 61 65" fill="none" xmlns="http://www.w3.org/2000/svg">
<g clip-path="url(#clip0_156_5903)">
<path d="M17.6256 64.9998H7.16421C6.51973 64.9998 5.98018 64.4832 5.98018 63.8486V42.8461C4.49639 42.2852 3.37231 40.7502 3.37231 39.0529V22.0502C3.37231 19.4083 5.56052 17.2534 8.24332 17.2534C11.3458 17.2534 13.8787 19.7477 13.8787 22.8029V22.98C13.8787 23.6147 13.3541 24.146 12.7097 24.146C12.0652 24.146 11.5256 23.6294 11.5256 22.98V22.8029C11.5256 21.017 10.0568 19.5706 8.24332 19.5706C6.86445 19.5706 5.72539 20.6776 5.72539 22.0502V39.0677C5.72539 40.027 6.59467 40.7502 7.16421 40.7502C7.80868 40.7502 8.33325 41.2668 8.33325 41.9162V62.6973H16.4416V62.2841C16.4416 61.0886 15.4524 60.1145 14.2384 60.1145H12.6947C12.0502 60.1145 11.5106 59.5979 11.5106 58.9485V29.8136C11.5106 29.1789 12.0352 28.6476 12.6947 28.6476C13.3541 28.6476 13.8637 29.1642 13.8637 29.8136V57.7972H14.2234C16.7264 57.7972 18.7797 59.8045 18.7797 62.2841V63.8486C18.7797 64.4832 18.2551 64.9998 17.5957 64.9998H17.6256Z" fill="white"/>
<path d="M27.5624 34.3894H17.6256C16.7113 34.3894 15.8121 34.0647 15.1226 33.4596L9.24745 28.3529C8.76784 27.9249 8.70789 27.2016 9.14253 26.7146C9.57718 26.2423 10.3116 26.1833 10.8062 26.6113L16.6814 31.718C16.9361 31.9394 17.2809 32.0722 17.6256 32.0722H27.5624C28.3418 32.0722 28.9863 31.4376 28.9863 30.6701C28.9863 29.9026 28.3418 29.268 27.5624 29.268H18.6148C18.33 29.268 18.0452 29.1646 17.8354 28.9728L11.2408 23.2462C11.031 23.0543 10.7612 22.9362 10.4764 22.9067C9.83197 22.8329 9.38234 22.2425 9.45727 21.6079C9.53221 20.9732 10.1167 20.5157 10.7762 20.6042C11.5256 20.6928 12.23 21.0027 12.7995 21.5046L19.0494 26.936H27.5474C29.6307 26.936 31.3243 28.6038 31.3243 30.6553C31.3243 32.7069 29.6307 34.3747 27.5474 34.3747L27.5624 34.3894Z" fill="white"/>
<path d="M9.24734 15.2019C5.47043 15.2019 2.39795 12.1762 2.39795 8.45689C2.39795 7.82224 2.92252 7.30566 3.58198 7.30566H14.9127C15.5572 7.30566 16.0817 7.82224 16.0817 8.45689C16.0817 12.1762 13.0093 15.2019 9.23235 15.2019H9.24734ZM4.91589 9.62288C5.44046 11.4973 7.17903 12.8847 9.24734 12.8847C11.3156 12.8847 13.0692 11.4973 13.5788 9.62288H4.91589Z" fill="white"/>
<path d="M16.5014 9.62283C15.8569 9.62283 15.3323 9.10625 15.3323 8.45684C15.3323 5.16551 12.6046 2.47932 9.2623 2.47932C5.92004 2.47932 3.17729 5.16551 3.17729 8.45684C3.17729 9.09149 2.65272 9.62283 1.99326 9.62283C1.3338 9.62283 0.824219 9.10625 0.824219 8.45684C0.824219 3.88146 4.60112 0.162109 9.24731 0.162109C13.8935 0.162109 17.6704 3.88146 17.6704 8.45684C17.6704 9.09149 17.1458 9.62283 16.4864 9.62283H16.5014Z" fill="white"/>
<path d="M17.3108 9.62288H1.16904C0.52457 9.62288 0 9.1063 0 8.45689C0 7.80748 0.52457 7.30566 1.16904 7.30566H17.3108C17.9553 7.30566 18.4799 7.82224 18.4799 8.45689C18.4799 9.09154 17.9553 9.62288 17.3108 9.62288Z" fill="white"/>
<path d="M48.4254 64.9998H2.78779C2.14332 64.9998 1.60376 64.4832 1.60376 63.8486C1.60376 63.2139 2.12833 62.6826 2.78779 62.6826H48.4254C49.0699 62.6826 49.6094 63.1992 49.6094 63.8486C49.6094 64.498 49.0848 64.9998 48.4254 64.9998Z" fill="white"/>
<path d="M27.8922 25.6072C27.2477 25.6072 26.7231 25.0906 26.7231 24.4412V8.45687C26.7231 5.85923 28.8814 3.73389 31.5192 3.73389H39.7625C40.4069 3.73389 40.9465 4.25046 40.9465 4.89987C40.9465 5.54928 40.4219 6.06586 39.7625 6.06586H31.5192C30.1703 6.06586 29.0762 7.14329 29.0762 8.47162V24.4707C29.0762 25.1054 28.5516 25.6367 27.8922 25.6367V25.6072Z" fill="white"/>
<path d="M39.7625 55.8787H31.5192C28.8814 55.8787 26.7231 53.7533 26.7231 51.1557V37.1196C26.7231 36.4849 27.2477 35.9536 27.8922 35.9536C28.5367 35.9536 29.0762 36.4702 29.0762 37.1196V51.1557C29.0762 52.484 30.1703 53.5615 31.5192 53.5615H39.7625C40.4069 53.5615 40.9465 54.078 40.9465 54.7275C40.9465 55.3769 40.4219 55.8934 39.7625 55.8934V55.8787Z" fill="white"/>
<path d="M46.6868 18.2572H27.8922C27.2477 18.2572 26.7231 17.7406 26.7231 17.0912C26.7231 16.4418 27.2477 15.9399 27.8922 15.9399H46.6868C47.3313 15.9399 47.8558 16.4565 47.8558 17.0912C47.8558 17.7258 47.3313 18.2572 46.6868 18.2572Z" fill="white"/>
<path d="M52.2322 30.9652H35.2811C34.6366 30.9652 34.1121 30.4486 34.1121 29.8139C34.1121 29.1793 34.6366 28.6479 35.2811 28.6479H52.2322C52.8767 28.6479 53.4162 29.1645 53.4162 29.8139C53.4162 30.4633 52.8917 30.9652 52.2322 30.9652Z" fill="white"/>
<path d="M46.6868 43.6727H27.8922C27.2477 43.6727 26.7231 43.1561 26.7231 42.5215C26.7231 41.8868 27.2477 41.3555 27.8922 41.3555H46.6868C47.3313 41.3555 47.8558 41.872 47.8558 42.5215C47.8558 43.1709 47.3313 43.6727 46.6868 43.6727Z" fill="white"/>
<path d="M54.2705 21.9915H46.6867C46.0422 21.9915 45.5027 21.4749 45.5027 20.8402V13.372C45.5027 12.7374 46.0273 12.2061 46.6867 12.2061H54.2705C54.915 12.2061 55.4395 12.7226 55.4395 13.372V20.8402C55.4395 21.4749 54.915 21.9915 54.2705 21.9915ZM47.8558 19.6743H53.0865V14.5233H47.8558V19.6743Z" fill="white"/>
<path d="M59.8161 34.6994H52.2323C51.5878 34.6994 51.0632 34.1828 51.0632 33.5481V26.0799C51.0632 25.4453 51.5878 24.9287 52.2323 24.9287H59.8161C60.4605 24.9287 60.9851 25.4453 60.9851 26.0799V33.5481C60.9851 34.1828 60.4605 34.6994 59.8161 34.6994ZM53.4013 32.3822H58.632V27.2312H53.4013V32.3822Z" fill="white"/>
<path d="M54.2705 47.4071H46.6867C46.0422 47.4071 45.5027 46.8905 45.5027 46.2411V38.7729C45.5027 38.1383 46.0273 37.6069 46.6867 37.6069H54.2705C54.915 37.6069 55.4395 38.1235 55.4395 38.7729V46.2411C55.4395 46.8758 54.915 47.4071 54.2705 47.4071ZM47.8558 45.0899H53.0865V39.9389H47.8558V45.0899Z" fill="white"/>
<path d="M47.3462 59.6129H39.7624C39.1179 59.6129 38.5784 59.0964 38.5784 58.4617V50.9935C38.5784 50.3589 39.1029 49.8423 39.7624 49.8423H47.3462C47.9907 49.8423 48.5302 50.3589 48.5302 50.9935V58.4617C48.5302 59.0964 48.0056 59.6129 47.3462 59.6129ZM40.9314 57.2957H46.1622V52.1447H40.9314V57.2957Z" fill="white"/>
<path d="M47.3462 9.78542H39.7624C39.1179 9.78542 38.5784 9.26885 38.5784 8.6342V1.16599C38.5784 0.531335 39.1029 0 39.7624 0H47.3462C47.9907 0 48.5302 0.516576 48.5302 1.16599V8.6342C48.5302 9.26885 48.0056 9.78542 47.3462 9.78542ZM40.9314 7.46821H46.1622V2.31721H40.9314V7.46821Z" fill="white"/>
</g>
<defs>
<clipPath id="clip0_156_5903">
<rect width="61" height="65" fill="white"/>
</clipPath>
</defs>
</svg>
