<?xml version="1.0" encoding="utf-8"?>
<svg width="69" height="69" viewBox="0 0 69 69" fill="none" xmlns="http://www.w3.org/2000/svg">
<g clip-path="url(#clip0_156_6005)">
<path d="M46.214 69H8.45663C6.1702 69 4.32227 67.1368 4.32227 64.8316V13.0737C4.32227 10.7684 6.1702 8.90527 8.45663 8.90527H17.6493C18.2288 8.90527 18.7299 9.3158 18.8552 9.86843C19.7322 13.8316 23.3027 16.7211 27.3431 16.7211C31.3835 16.7211 34.9541 13.8474 35.8311 9.86843C35.9564 9.30001 36.4575 8.90527 37.037 8.90527H46.2297C48.5161 8.90527 50.364 10.7684 50.364 13.0737V64.8316C50.364 67.1368 48.5161 69 46.2297 69H46.214ZM8.45663 11.3842C7.53266 11.3842 6.78096 12.1421 6.78096 13.0737V64.8316C6.78096 65.7632 7.53266 66.5211 8.45663 66.5211H46.214C47.138 66.5211 47.8897 65.7632 47.8897 64.8316V13.0737C47.8897 12.1421 47.138 11.3842 46.214 11.3842H37.9609C36.5045 16.0421 32.2605 19.2 27.3275 19.2C22.3944 19.2 18.1661 16.0263 16.694 11.3842H8.45663Z" fill="white"/>
<path d="M27.3432 19.2002C21.6271 19.2002 16.8663 14.8897 16.2399 9.17391C16.1773 8.54233 16.3809 7.91075 16.788 7.43707C17.2109 6.96338 17.806 6.69496 18.4324 6.69496H22.5354V4.81601C22.5354 3.4897 23.0835 2.21075 24.0388 1.31075C24.9941 0.410751 26.2626 -0.0629335 27.5938 0.000224365C30.1464 0.12654 32.1353 2.35286 32.1353 5.03707V6.71075H36.2383C36.8647 6.71075 37.4598 6.97917 37.8827 7.45286C38.3055 7.92654 38.5091 8.55812 38.4308 9.1897C37.82 14.9055 33.0436 19.216 27.3275 19.216L27.3432 19.2002ZM18.7299 9.1897C19.325 13.5002 22.9896 16.7213 27.3432 16.7213C31.6968 16.7213 35.3613 13.5002 35.9564 9.1897H30.9138C30.2404 9.1897 29.6766 8.63707 29.6766 7.94233V5.03707C29.6766 3.69496 28.69 2.54233 27.4685 2.47917C26.8264 2.44759 26.2 2.66865 25.7302 3.12654C25.2603 3.58443 24.9941 4.18443 24.9941 4.8318V7.94233C24.9941 8.62128 24.446 9.1897 23.7569 9.1897H18.7143H18.7299Z" fill="white"/>
<path d="M15.6291 32.1157C12.0898 32.1157 9.19263 29.2104 9.19263 25.6262C9.19263 22.042 12.0742 19.1367 15.6291 19.1367C19.184 19.1367 22.0655 22.042 22.0655 25.6262C22.0655 29.2104 19.184 32.1157 15.6291 32.1157ZM15.6291 21.6315C13.4366 21.6315 11.6513 23.4315 11.6513 25.642C11.6513 27.8525 13.4366 29.6525 15.6291 29.6525C17.8215 29.6525 19.6068 27.8525 19.6068 25.642C19.6068 23.4315 17.8215 21.6315 15.6291 21.6315Z" fill="white"/>
<path d="M15.6291 27.7263C15.6291 27.7263 15.5508 27.7263 15.5038 27.7263C15.1749 27.6948 14.8774 27.5211 14.6738 27.2684L13.0451 25.2C12.6223 24.6632 12.7163 23.8895 13.2487 23.4632C13.7812 23.0369 14.5485 23.1316 14.9714 23.6684L15.817 24.7421L21.3765 20.0684C21.8933 19.6263 22.6763 19.7053 23.1148 20.2263C23.5533 20.7474 23.475 21.5369 22.9582 21.979L16.4278 27.4737C16.2085 27.6632 15.9266 27.7579 15.6448 27.7579L15.6291 27.7263Z" fill="white"/>
<path d="M15.6291 48.142C12.0898 48.142 9.19263 45.2368 9.19263 41.6526C9.19263 38.0683 12.0742 35.1631 15.6291 35.1631C19.184 35.1631 22.0655 38.0683 22.0655 41.6526C22.0655 45.2368 19.184 48.142 15.6291 48.142ZM15.6291 37.6578C13.4366 37.6578 11.6513 39.4578 11.6513 41.6683C11.6513 43.8789 13.4366 45.6789 15.6291 45.6789C17.8215 45.6789 19.6068 43.8789 19.6068 41.6683C19.6068 39.4578 17.8215 37.6578 15.6291 37.6578Z" fill="white"/>
<path d="M15.6291 43.7527C15.6291 43.7527 15.5508 43.7527 15.5038 43.7527C15.1749 43.7211 14.8774 43.5474 14.6738 43.2948L13.0451 41.2264C12.6223 40.6895 12.7163 39.9159 13.2487 39.4895C13.7812 39.0632 14.5485 39.158 14.9714 39.6948L15.817 40.7685L21.3765 36.0948C21.8933 35.6527 22.6763 35.7316 23.1148 36.2527C23.5533 36.7738 23.475 37.5632 22.9582 38.0053L16.4278 43.5001C16.2085 43.6895 15.9266 43.7843 15.6448 43.7843L15.6291 43.7527Z" fill="white"/>
<path d="M15.6291 64.1684C12.0898 64.1684 9.19263 61.2631 9.19263 57.6789C9.19263 54.0947 12.0742 51.1895 15.6291 51.1895C19.184 51.1895 22.0655 54.0947 22.0655 57.6789C22.0655 61.2631 19.184 64.1684 15.6291 64.1684ZM15.6291 53.6842C13.4366 53.6842 11.6513 55.4842 11.6513 57.6947C11.6513 59.9052 13.4366 61.7052 15.6291 61.7052C17.8215 61.7052 19.6068 59.9052 19.6068 57.6947C19.6068 55.4842 17.8215 53.6842 15.6291 53.6842Z" fill="white"/>
<path d="M15.6291 59.7791C15.6291 59.7791 15.5508 59.7791 15.5038 59.7791C15.1749 59.7475 14.8774 59.5738 14.6738 59.3212L13.0451 57.2528C12.6223 56.7159 12.7163 55.9422 13.2487 55.5159C13.7812 55.0896 14.5485 55.1843 14.9714 55.7212L15.817 56.7949L21.3765 52.1212C21.8933 51.6791 22.6763 51.758 23.1148 52.2791C23.5533 52.8001 23.475 53.5896 22.9582 54.0317L16.4278 59.5264C16.2085 59.7159 15.9266 59.8107 15.6448 59.8107L15.6291 59.7791Z" fill="white"/>
<path d="M43.5048 24.5371H26.5601C25.8867 24.5371 25.3386 23.9844 25.3386 23.2897C25.3386 22.5949 25.8867 22.0581 26.5601 22.0581H43.5048C44.1782 22.0581 44.7419 22.6107 44.7419 23.2897C44.7419 23.9686 44.1938 24.5371 43.5048 24.5371Z" fill="white"/>
<path d="M43.5048 29.2265H26.5601C25.8867 29.2265 25.3386 28.6739 25.3386 27.9949C25.3386 27.316 25.8867 26.7476 26.5601 26.7476H43.5048C44.1782 26.7476 44.7419 27.3002 44.7419 27.9949C44.7419 28.6897 44.1938 29.2265 43.5048 29.2265Z" fill="white"/>
<path d="M43.5048 40.5473H26.5601C25.8867 40.5473 25.3386 39.9947 25.3386 39.2999C25.3386 38.6052 25.8867 38.0684 26.5601 38.0684H43.5048C44.1782 38.0684 44.7419 38.621 44.7419 39.2999C44.7419 39.9789 44.1938 40.5473 43.5048 40.5473Z" fill="white"/>
<path d="M43.5048 45.2524H26.5601C25.8867 45.2524 25.3386 44.6998 25.3386 44.005C25.3386 43.3103 25.8867 42.7734 26.5601 42.7734H43.5048C44.1782 42.7734 44.7419 43.3261 44.7419 44.005C44.7419 44.684 44.1938 45.2524 43.5048 45.2524Z" fill="white"/>
<path d="M43.5048 56.5737H26.5601C25.8867 56.5737 25.3386 56.021 25.3386 55.3421C25.3386 54.6631 25.8867 54.0947 26.5601 54.0947H43.5048C44.1782 54.0947 44.7419 54.6474 44.7419 55.3421C44.7419 56.0368 44.1938 56.5737 43.5048 56.5737Z" fill="white"/>
<path d="M43.5048 61.2788H26.5601C25.8867 61.2788 25.3386 60.7261 25.3386 60.0472C25.3386 59.3682 25.8867 58.7998 26.5601 58.7998H43.5048C44.1782 58.7998 44.7419 59.3524 44.7419 60.0472C44.7419 60.7419 44.1938 61.2788 43.5048 61.2788Z" fill="white"/>
<path d="M63.5344 58.9897H55.9078C55.2344 58.9897 54.6863 58.437 54.6863 57.7581V18.237C54.6863 15.4423 56.9414 13.1528 59.729 13.1528C62.5165 13.1528 64.7716 15.4265 64.7716 18.237V57.7581C64.7716 58.437 64.2235 58.9897 63.5501 58.9897H63.5344ZM57.145 56.5107H62.3129V18.237C62.3129 16.8002 61.1541 15.6318 59.729 15.6318C58.3038 15.6318 57.145 16.8002 57.145 18.237V56.5107Z" fill="white"/>
<path d="M59.7134 66.6474C59.2436 66.6474 58.8208 66.379 58.6172 65.9685L54.8117 58.3264C54.5142 57.7106 54.7491 56.9685 55.3598 56.6685C55.9706 56.3685 56.7066 56.6053 57.0042 57.2211L59.7134 62.6685L62.4227 57.2211C62.7202 56.6053 63.4719 56.3685 64.067 56.6685C64.6778 56.9843 64.9127 57.7264 64.6152 58.3264L60.8097 65.9685C60.6061 66.379 60.1832 66.6474 59.7134 66.6474Z" fill="white"/>
<path d="M59.7133 69.0002C59.0399 69.0002 58.4761 68.4476 58.4761 67.7528V65.4002C58.4761 64.7212 59.0242 64.1528 59.7133 64.1528C60.4023 64.1528 60.9504 64.7055 60.9504 65.4002V67.7528C60.9504 68.4318 60.4023 69.0002 59.7133 69.0002Z" fill="white"/>
<path d="M67.7628 38.0211C67.0894 38.0211 66.5413 37.4685 66.5413 36.7896V27.2685C66.5413 25.5948 65.1945 24.2369 63.5344 24.2369H55.9078C55.2344 24.2369 54.6863 23.6843 54.6863 22.9896C54.6863 22.2948 55.2344 21.7422 55.9078 21.7422H63.5344C66.5413 21.7422 68.9999 24.2211 68.9999 27.2527V36.7738C68.9999 37.4527 68.4518 38.0053 67.7628 38.0053V38.0211Z" fill="white"/>
<path d="M67.7785 69.0001H1.23718C0.563777 69.0001 0 68.4475 0 67.7527C0 67.058 0.548116 66.5054 1.23718 66.5054H67.7785C68.4519 66.5054 69.0157 67.058 69.0157 67.7527C69.0157 68.4475 68.4675 69.0001 67.7785 69.0001Z" fill="white"/>
</g>
<defs>
<clipPath id="clip0_156_6005">
<rect width="69" height="69" fill="white"/>
</clipPath>
</defs>
</svg>
